<svg xmlns="http://www.w3.org/2000/svg" viewBox="0 0 512 512" width="80" height="40"><path d="M163.7 201.2l-51.5 86.8-51.5-86.8H0v109.6h50.3v-58.1l30.8 51.8h30.4l30.8-51.8v58.1H193V201.2h-29.3zm136.3 0l-51.5 86.8-51.5-86.8h-60.7v109.6h50.3v-58.1l30.8 51.8h30.4l30.8-51.8v58.1h50.8V201.2h-29.4zm212-105.5c-57.7 0-104.5 46.8-104.5 104.5s46.8 104.5 104.5 104.5 104.5-46.8 104.5-104.5-46.8-104.5-104.5-104.5zm0 159.3c-30.3 0-54.8-24.5-54.8-54.8s24.5-54.8 54.8-54.8 54.8 24.5 54.8 54.8-24.5 54.8-54.8 54.8z"/></svg>
