<?xml version="1.0" standalone="no"?>
<!DOCTYPE svg PUBLIC "-//W3C//DTD SVG 20010904//EN"
 "http://www.w3.org/TR/2001/REC-SVG-20010904/DTD/svg10.dtd">
<svg version="1.0" xmlns="http://www.w3.org/2000/svg"
 width="234.000000pt" height="234.000000pt" viewBox="0 0 234.000000 234.000000"
 preserveAspectRatio="xMidYMid meet">

<g transform="translate(0.000000,234.000000) scale(0.100000,-0.100000)"
fill="#000000" stroke="none">
<path d="M370 1327 l-85 -53 0 -149 0 -150 109 -3 109 -3 107 65 108 64 63
-64 63 -64 98 0 c54 0 98 3 98 7 0 4 -43 51 -96 104 l-96 96 135 82 c74 44
138 81 141 81 3 0 7 -82 8 -182 l3 -183 156 -3 156 -2 209 135 c115 74 212
135 216 135 4 0 9 -63 10 -140 l3 -139 85 52 85 53 3 149 c2 112 -1 150 -10
157 -20 12 -136 10 -161 -4 -12 -6 -142 -89 -290 -185 -147 -95 -272 -173
-277 -173 -6 0 -10 69 -10 180 l0 180 -24 6 c-13 3 -86 4 -162 2 l-139 -3
-260 -158 -260 -157 -5 160 -5 159 -85 -52z"/>
</g>
</svg>
