<?xml version="1.0" encoding="UTF-8"?>
<svg version="1.1" xmlns="http://www.w3.org/2000/svg" width="925" height="311">
<path d="M0 0 C1.10705795 -0.0087616 2.21411591 -0.01752319 3.35472107 -0.02655029 C6.98623746 -0.04841884 10.61651976 -0.03403479 14.24804688 -0.01708984 C16.78812899 -0.02046154 19.32820952 -0.02531711 21.86828613 -0.03158569 C27.18075476 -0.03894013 32.49278786 -0.02877996 37.80517578 -0.00488281 C43.923231 0.02232292 50.04045275 0.01350641 56.1584878 -0.01401484 C62.07455447 -0.03954948 67.99036509 -0.03670639 73.90647888 -0.02210617 C76.41019306 -0.01878275 78.91392867 -0.02282156 81.4176178 -0.03450394 C84.92350731 -0.04727461 88.42782091 -0.02774576 91.93359375 0 C93.46910133 -0.01518173 93.46910133 -0.01518173 95.03562927 -0.03067017 C101.98552334 0.07066926 107.7563071 1.50323151 113.46679688 5.64697266 C113.79679688 6.63697266 114.12679687 7.62697266 114.46679688 8.64697266 C116.46696154 9.85579362 116.46696154 9.85579362 118.46679688 10.64697266 C118.46679688 11.30697266 118.46679688 11.96697266 118.46679688 12.64697266 C119.45679688 12.97697266 120.44679687 13.30697266 121.46679688 13.64697266 C124.99102384 18.30398686 127.74462956 23.50101115 130.66601562 28.54931641 C132.78204576 32.18925544 134.94339933 35.79889977 137.14257812 39.38916016 C138.46679687 41.64697266 138.46679687 41.64697266 139.44726562 43.71728516 C141.16437905 47.30147825 142.63909953 49.04811015 146.27929688 50.45947266 C147.66640122 50.8848857 149.06271109 51.28148965 150.46679688 51.64697266 C159.10220915 53.98877938 163.21787794 56.71342909 168.15429688 64.20947266 C170.59961062 68.75076961 170.61098691 72.98117189 170.59619141 78.05834961 C170.59881989 79.16889709 170.59881989 79.16889709 170.60150146 80.30187988 C170.60589787 82.74636183 170.60298885 85.19077123 170.59960938 87.63525391 C170.60028326 89.33912673 170.601254 91.04299946 170.60250854 92.74687195 C170.6039827 96.31864334 170.60184079 99.89038972 170.59716797 103.4621582 C170.59148384 108.02833974 170.59474312 112.59446232 170.60074043 117.16064167 C170.60436473 120.68062275 170.60319865 124.20059001 170.60061264 127.72057152 C170.59994787 129.4033935 170.60075602 131.08621676 170.60309219 132.76903725 C170.60564798 135.12852901 170.60173654 137.48792726 170.59619141 139.84741211 C170.59821564 140.53596786 170.60023987 141.22452362 170.60232544 141.9339447 C170.56682572 150.13881792 169.7547162 156.28902731 164.46679688 162.64697266 C158.04253301 168.59027559 153.45841804 170.95768024 144.75585938 170.78759766 C135.9049165 170.24385373 128.56420628 165.02567031 122.52929688 158.77197266 C120.567951 156.42485072 120.567951 156.42485072 117.46679688 155.64697266 C117.46679688 154.98697266 117.46679688 154.32697266 117.46679688 153.64697266 C103.19974014 153.62338222 88.93268652 153.60593432 74.66561413 153.59516048 C68.03789171 153.58998459 61.41018614 153.58298556 54.7824707 153.5715332 C48.36332892 153.56051312 41.94419974 153.5546562 35.52504921 153.55209541 C33.09958002 153.55027505 30.67411137 153.5467224 28.24864769 153.5412426 C21.46457105 153.52655217 14.68218321 153.54507831 7.89843369 153.61582565 C5.52757013 153.63734462 3.15660614 153.64919525 0.78564835 153.65321732 C-2.89153191 153.66509321 -6.56626128 153.71713878 -10.24291992 153.77807617 C-11.35818212 153.77503699 -12.47344431 153.77199781 -13.62250233 153.76886654 C-20.1642456 153.92671841 -24.00342587 154.83774457 -28.92231464 159.26736355 C-30.53320313 160.64697266 -30.53320313 160.64697266 -33.53320312 161.64697266 C-33.84515625 162.28248047 -34.15710938 162.91798828 -34.47851562 163.57275391 C-35.77382348 166.12019269 -36.84663371 166.65035095 -39.40820312 167.83447266 C-40.08625 168.15802734 -40.76429687 168.48158203 -41.46289062 168.81494141 C-48.96901162 171.8315523 -58.09192591 171.73580471 -65.53320312 168.64697266 C-75.32147179 162.57409692 -79.88327928 155.79065104 -82.53320312 144.64697266 C-83.0809375 139.20192962 -83.09851469 133.79496215 -83.06445312 128.33056641 C-83.06715618 126.78222918 -83.07104532 125.23389363 -83.0760498 123.68556213 C-83.08190499 120.46069981 -83.07351108 117.23628445 -83.0546875 114.01147461 C-83.03188046 109.90742955 -83.04505672 105.80443024 -83.06897736 101.70042324 C-83.08352778 98.50963152 -83.07878777 95.31908212 -83.06846619 92.12828255 C-83.06582532 90.61623061 -83.06897406 89.10415562 -83.0783844 87.59213066 C-83.12860844 77.26007998 -82.21395055 68.3981405 -76.53320312 59.52197266 C-74.47326089 57.59077681 -73.31432066 56.94494953 -70.53320312 56.64697266 C-70.53320312 55.98697266 -70.53320312 55.32697266 -70.53320312 54.64697266 C-67.57686135 53.00531743 -64.98648936 52.25381854 -61.65820312 51.70947266 C-56.06640724 50.65534913 -51.31442567 49.07119498 -47.53320312 44.64697266 C-46.41678314 42.54979892 -45.361619 40.41963329 -44.34570312 38.27197266 C-40.00183534 29.30546734 -35.16994461 20.13563541 -28.53320312 12.64697266 C-27.87320313 12.64697266 -27.21320313 12.64697266 -26.53320312 12.64697266 C-25.87320313 11.32697266 -25.21320313 10.00697266 -24.53320312 8.64697266 C-23.87320313 8.64697266 -23.21320313 8.64697266 -22.53320312 8.64697266 C-22.20320313 7.65697266 -21.87320313 6.66697266 -21.53320312 5.64697266 C-14.78920968 0.75328329 -8.10346621 -0.08011986 0 0 Z M-15.71679688 28.00634766 C-18.30372822 31.76713387 -20.2982088 35.71099642 -22.20898438 39.85009766 C-23.94914577 43.52548279 -26.06094376 46.89485589 -28.22070312 50.33447266 C-29.6977383 52.49370031 -29.6977383 52.49370031 -29.53320312 54.64697266 C20.62679687 54.64697266 70.78679687 54.64697266 122.46679688 54.64697266 C120.98592762 50.94479951 119.91991669 48.63713669 117.71679688 45.52197266 C115.40992605 42.15941519 113.41725441 38.76091818 111.52929688 35.14697266 C107.26781156 27.24546863 103.44670056 20.39059284 94.46679688 17.64697266 C91.37286111 17.23540373 88.3199194 17.22617211 85.2019043 17.24291992 C84.30010941 17.23605667 83.39831451 17.22919342 82.4691925 17.22212219 C79.50338765 17.20389902 76.53811419 17.20768614 73.57226562 17.21337891 C71.49872161 17.2088142 69.42517911 17.20350776 67.35163879 17.19749451 C63.00999804 17.1885716 58.6685413 17.19097636 54.3269043 17.20092773 C48.78224875 17.21240231 43.23823151 17.1922246 37.69365978 17.1630106 C33.41176869 17.14459932 29.13002906 17.14495112 24.84810829 17.15064812 C22.80491556 17.1508008 20.76171221 17.14480033 18.71855736 17.13235664 C-0.67843616 16.86870828 -0.67843616 16.86870828 -15.71679688 28.00634766 Z M-55.90820312 89.64697266 C-58.38809146 92.69914291 -58.56827676 95.85200534 -58.53320312 99.64697266 C-57.78201498 105.76379043 -55.18280568 108.34273331 -50.60351562 112.06884766 C-49.9203125 112.58962891 -49.23710938 113.11041016 -48.53320312 113.64697266 C-47.86675781 114.17419922 -47.2003125 114.70142578 -46.51367188 115.24462891 C-38.98133264 120.57817878 -29.4069732 120.69613663 -20.53320312 119.64697266 C-17.33907406 118.46558245 -15.03948884 116.93102614 -12.53320312 114.64697266 C-12.00984375 114.17001953 -11.48648438 113.69306641 -10.94726562 113.20166016 C-9.76615945 112.05970667 -8.641771 110.85946877 -7.53320312 109.64697266 C-8.89457348 105.56286158 -10.69300576 105.22032999 -14.47070312 103.27197266 C-15.05899902 102.96598145 -15.64729492 102.65999023 -16.25341797 102.34472656 C-18.00827959 101.43562728 -19.77066569 100.54109939 -21.53320312 99.64697266 C-22.42394531 99.18806641 -23.3146875 98.72916016 -24.23242188 98.25634766 C-39.37389497 89.4466395 -39.37389497 89.4466395 -55.90820312 89.64697266 Z M115.46679688 96.64697266 C112.50929366 98.15718706 109.53689325 99.61416159 106.52929688 101.02197266 C99.55280696 104.50500028 99.55280696 104.50500028 95.46679688 110.64697266 C101.26401861 117.1688471 107.32843177 120.03777549 116.05664062 120.63134766 C119.30920823 120.65243399 122.2768846 120.27108593 125.46679688 119.64697266 C125.46679688 118.98697266 125.46679688 118.32697266 125.46679688 117.64697266 C126.43617188 117.58509766 127.40554688 117.52322266 128.40429688 117.45947266 C134.8511184 116.54224195 141.44090654 112.75675654 145.46679688 107.64697266 C148.57956798 102.7554752 149.18427974 99.29715022 148.46679688 93.64697266 C146.63346354 90.48030599 146.63346354 90.48030599 143.46679688 88.64697266 C134.37789625 86.96384291 123.04471327 91.79444724 115.46679688 96.64697266 Z M3.46679688 125.64697266 C3.30013021 128.64697266 3.30013021 128.64697266 3.46679688 131.64697266 C10.47616006 138.65633584 44.48104625 134.89856868 54.46270752 134.94552612 C56.37317821 134.95478059 58.28363203 134.96883437 60.19403076 134.98782349 C62.90759086 135.01171077 65.6203377 135.014244 68.33398438 135.01025391 C69.54024475 135.02394012 69.54024475 135.02394012 70.77087402 135.03790283 C76.28975697 134.99355285 80.39391147 133.83236562 85.46679688 131.64697266 C85.63367135 129.23051484 85.63367135 129.23051484 85.46679688 126.64697266 C80.86444423 122.04462002 73.43848134 122.40957927 67.29766846 122.36907959 C65.7803714 122.37515228 65.7803714 122.37515228 64.23242188 122.38134766 C62.62255402 122.37847748 62.62255402 122.37847748 60.98016357 122.37554932 C58.71089442 122.37419257 56.44161738 122.37785327 54.17236328 122.38623047 C50.76901874 122.39681032 47.36621751 122.38638349 43.96289062 122.37353516 C22.64197831 120.78239698 22.64197831 120.78239698 3.46679688 125.64697266 Z " fill="#C27F00" transform="translate(134.533203125,82.35302734375)"/>
<path d="M0 0 C0.92541595 -0.00960754 1.85083191 -0.01921509 2.80429077 -0.02911377 C4.31969955 -0.03548859 4.31969955 -0.03548859 5.86572266 -0.04199219 C7.42258286 -0.0505423 7.42258286 -0.0505423 9.01089478 -0.05926514 C11.21851578 -0.0687384 13.42615108 -0.07525829 15.63378906 -0.07910156 C18.98089208 -0.08872659 22.32735983 -0.11969408 25.67431641 -0.15136719 C27.82144819 -0.15790519 29.96858436 -0.16315252 32.11572266 -0.16699219 C33.10575287 -0.17933899 34.09578308 -0.19168579 35.11581421 -0.20440674 C46.71558073 -0.16802814 55.74244851 2.68143346 64.65478516 10.16113281 C71.92744449 17.62517792 73.76878986 26.15157315 73.80004883 36.30883789 C73.80340744 36.9975145 73.80676605 37.6861911 73.81022644 38.39573669 C73.81967325 40.65739784 73.82167644 42.91898445 73.82275391 45.18066406 C73.82597106 46.76478607 73.82933548 48.34890778 73.83283997 49.93302917 C73.83881572 53.24906096 73.84068149 56.56506673 73.84008789 59.88110352 C73.83998641 64.1107786 73.85363119 68.3402853 73.8708601 72.56992054 C73.88203015 75.84120943 73.88400556 79.11245827 73.88347816 82.38376427 C73.88465103 83.94213122 73.88903346 85.50049944 73.89681053 87.05884743 C73.95939526 100.89542207 73.07274075 110.40966138 63.65478516 121.16113281 C53.8680533 130.64022673 41.46807816 131.32323236 28.50244141 131.29394531 C27.56170273 131.29490204 26.62096405 131.29585876 25.65171814 131.29684448 C23.67935112 131.29752094 21.7069818 131.2957042 19.73461914 131.29150391 C16.70209857 131.28610578 13.66972329 131.29148844 10.63720703 131.29785156 C8.71728483 131.29719151 6.79736272 131.29591186 4.87744141 131.29394531 C3.96712662 131.29596954 3.05681183 131.29799377 2.11891174 131.30007935 C-4.23023675 131.2761109 -4.23023675 131.2761109 -5.34521484 130.16113281 C-5.44353073 128.49320358 -5.47153474 126.82109275 -5.47219849 125.15026855 C-5.47501831 124.06491318 -5.47783813 122.9795578 -5.48074341 121.86131287 C-5.47871918 120.66023392 -5.47669495 119.45915497 -5.47460938 118.22167969 C-5.47636169 116.96492935 -5.47811401 115.70817902 -5.47991943 114.41334534 C-5.48449325 110.95682634 -5.48270442 107.50033706 -5.47954035 104.04381752 C-5.47701648 100.43411806 -5.47935436 96.82442123 -5.48092651 93.21472168 C-5.48274813 87.15176942 -5.48034211 81.08882932 -5.47558594 75.02587891 C-5.47014333 68.00663195 -5.47190599 60.98741403 -5.47741234 53.96816778 C-5.4819437 47.95204338 -5.48259391 41.93592774 -5.47997367 35.91980219 C-5.47841102 32.32205383 -5.47821681 28.72431915 -5.48151016 25.12657166 C-5.48492306 21.11789212 -5.48019878 17.10926301 -5.47460938 13.10058594 C-5.47663361 11.89950699 -5.47865784 10.69842804 -5.48074341 9.46095276 C-5.47792358 8.37559738 -5.47510376 7.290242 -5.47219849 6.17199707 C-5.47182146 5.22292732 -5.47144444 4.27385757 -5.47105598 3.29602814 C-5.24337358 -0.56660449 -3.40834843 0.02847395 0 0 Z M19.65478516 23.16113281 C18.7301328 27.84424119 18.51924369 32.36260015 18.56103516 37.11816406 C18.56462036 37.92494095 18.56820557 38.73171783 18.57189941 39.5629425 C18.64908569 51.98157171 18.89444419 64.39927502 19.11834717 76.81591797 C19.17989369 80.24932756 19.23951192 83.68277064 19.29931641 87.11621094 C19.41607567 93.79788295 19.5346819 100.47952012 19.65478516 107.16113281 C21.88261757 107.17980022 24.11049556 107.1930774 26.33837891 107.20410156 C28.19934204 107.21606567 28.19934204 107.21606567 30.09790039 107.22827148 C36.17971054 107.11347309 40.73813907 106.59861738 45.65478516 102.91113281 C48.91596237 98.42701414 48.77947763 93.58501447 48.81591797 88.17504883 C48.82552551 87.01687149 48.83513306 85.85869415 48.84503174 84.66542053 C48.84928162 83.42779465 48.85353149 82.19016876 48.85791016 80.91503906 C48.86646027 78.98832619 48.86646027 78.98832619 48.87518311 77.02268982 C48.88565031 74.31028857 48.89152147 71.59791661 48.89501953 68.88549805 C48.90050764 65.42453133 48.92456004 61.96395731 48.95299149 58.50311375 C48.97618062 55.18209688 48.97807056 51.86113264 48.98291016 48.54003906 C48.99525696 47.30443741 49.00760376 46.06883575 49.02032471 44.79579163 C49.00196673 37.69183809 48.80436923 32.13083019 44.24462891 26.38378906 C37.0685073 21.34523559 28.0078566 22.75954284 19.65478516 23.16113281 Z " fill="#000000" transform="translate(352.34521484375,108.8388671875)"/>
<path d="M0 0 C1.21171875 -0.02578125 2.4234375 -0.0515625 3.671875 -0.078125 C10.20789629 0.52124813 13.90808969 3.52497996 18.25 8.25 C18.91 5.94 19.57 3.63 20.25 1.25 C24.06248426 1.22112764 27.8749407 1.20324508 31.6875 1.1875 C32.77611328 1.17912109 33.86472656 1.17074219 34.98632812 1.16210938 C36.02080078 1.15888672 37.05527344 1.15566406 38.12109375 1.15234375 C39.07943115 1.14710693 40.03776855 1.14187012 41.02514648 1.13647461 C43.25 1.25 43.25 1.25 44.25 2.25 C44.35606264 3.58868888 44.39402582 4.93286345 44.40390015 6.27571106 C44.41250061 7.14322998 44.42110107 8.0107489 44.42996216 8.90455627 C44.43422211 9.863936 44.43848206 10.82331573 44.44287109 11.81176758 C44.45513733 13.31926071 44.45513733 13.31926071 44.46765137 14.85720825 C44.49257904 18.20297646 44.50904745 21.54870178 44.5234375 24.89453125 C44.52876118 26.03705542 44.53408485 27.17957958 44.53956985 28.35672569 C44.56634379 34.41351018 44.58569798 40.47027384 44.60009766 46.52709961 C44.61668173 52.76675689 44.66139519 59.00587942 44.7124691 65.24533558 C44.74624756 70.05399635 44.75768724 74.86253248 44.76332474 79.67130089 C44.77001669 81.96965265 44.7851847 84.26799681 44.80921555 86.56623268 C45.03698715 109.6841531 45.03698715 109.6841531 39.25 119.25 C38.59 119.25 37.93 119.25 37.25 119.25 C37.1571875 120.11625 37.1571875 120.11625 37.0625 121 C35.2587786 125.99492081 29.88153784 128.11341684 25.41015625 130.41796875 C16.19111177 133.96888462 1.19698331 134.05618515 -7.9296875 130.2265625 C-14.6915555 126.59895091 -18.51154751 122.72690497 -22 115.75 C-22.87843098 112.82189674 -22.89142085 110.29054824 -22.75 107.25 C-19.7563071 106.23040894 -16.75421537 105.23811213 -13.75 104.25 C-12.43902344 103.80333984 -12.43902344 103.80333984 -11.1015625 103.34765625 C-9.81378906 102.92806641 -9.81378906 102.92806641 -8.5 102.5 C-7.31664062 102.10554688 -7.31664062 102.10554688 -6.109375 101.703125 C-3.37201221 101.17740632 -1.42606838 101.54776929 1.25 102.25 C1.58 103.57 1.91 104.89 2.25 106.25 C2.91 106.25 3.57 106.25 4.25 106.25 C4.745 107.24 4.745 107.24 5.25 108.25 C7.60599235 108.71751788 7.60599235 108.71751788 10.3125 108.875 C11.23160156 108.94976562 12.15070312 109.02453125 13.09765625 109.1015625 C14.16306641 109.17503906 14.16306641 109.17503906 15.25 109.25 C15.745 107.765 15.745 107.765 16.25 106.25 C16.91 105.92 17.57 105.59 18.25 105.25 C18.25 99.64 18.25 94.03 18.25 88.25 C17.59 88.25 16.93 88.25 16.25 88.25 C15.755 89.735 15.755 89.735 15.25 91.25 C12.8007519 94.47269487 10.13755583 95.34753168 6.25 96.25 C-0.49706549 96.84836361 -6.7662085 96.68488715 -12.75 93.25 C-15.5625 90.8125 -15.5625 90.8125 -17.75 88.25 C-18.554375 87.38375 -18.554375 87.38375 -19.375 86.5 C-24.41562809 78.25169948 -24.90493698 68.62208578 -24.91796875 59.203125 C-24.92129715 58.35127625 -24.92462555 57.49942749 -24.92805481 56.62176514 C-24.93309457 54.82662491 -24.93546405 53.03147541 -24.93530273 51.23632812 C-24.93748235 48.52197422 -24.95565077 45.80803183 -24.97460938 43.09375 C-25.06688144 14.8256837 -25.06688144 14.8256837 -15.75 5.25 C-10.38723425 1.67883088 -6.43335363 0.08143486 0 0 Z M0.25 27.25 C0.01291359 30.27658278 -0.10243506 33.20840792 -0.12109375 36.23828125 C-0.13012222 37.13363083 -0.1391507 38.02898041 -0.14845276 38.95146179 C-0.16297718 40.84871059 -0.17184742 42.74600974 -0.17553711 44.64331055 C-0.18741217 47.54106687 -0.23655634 50.43667922 -0.28710938 53.33398438 C-0.29657591 55.17707294 -0.30380984 57.02017459 -0.30859375 58.86328125 C-0.32812607 59.72802567 -0.34765839 60.59277008 -0.36778259 61.48371887 C-0.335072 65.86479774 -0.17750894 67.6918095 2.56616211 71.27416992 C5.93301079 73.75282965 8.08159094 74.25 12.25 74.25 C15.17346557 72.88571607 16.97750909 71.52249091 19.25 69.25 C19.5613623 67.38165076 19.5613623 67.38165076 19.5246582 65.23095703 C19.53419022 64.40314728 19.54372223 63.57533752 19.55354309 62.72244263 C19.55263168 61.82661469 19.55172028 60.93078674 19.55078125 60.0078125 C19.55506638 59.0878952 19.5593515 58.16797791 19.56376648 57.22018433 C19.56951615 55.27163517 19.57000537 53.32306454 19.56567383 51.37451172 C19.56251993 48.39383198 19.58594386 45.41415023 19.61132812 42.43359375 C19.61360167 40.54166792 19.61430436 38.64973942 19.61328125 36.7578125 C19.622491 35.86603302 19.63170074 34.97425354 19.64118958 34.05545044 C19.62220898 29.17362357 19.62220898 29.17362357 17.85766602 24.70043945 C12.16954349 19.56860408 4.96517099 22.53482901 0.25 27.25 Z " fill="#000000" transform="translate(508.75,144.75)"/>
<path d="M0 0 C0.96945557 0.00757324 1.93891113 0.01514648 2.93774414 0.02294922 C12.32414603 0.23930945 20.52284311 1.86656106 27.5 8.55859375 C36.74614531 19.24944927 39.33629247 30.62151976 40.125 44.4375 C35.65030163 45.92906612 31.24913221 45.62187766 26.5625 45.625 C25.59119141 45.63724609 24.61988281 45.64949219 23.61914062 45.66210938 C22.69166016 45.66404297 21.76417969 45.66597656 20.80859375 45.66796875 C19.53326782 45.67413208 19.53326782 45.67413208 18.23217773 45.68041992 C16.125 45.4375 16.125 45.4375 14.125 43.4375 C13.6332299 41.51305861 13.20388864 39.57233855 12.8125 37.625 C11.57108997 32.31558479 10.43514714 29.72682282 6.125 26.4375 C5.795 26.1075 5.465 25.7775 5.125 25.4375 C2.89668647 25.19874577 2.89668647 25.19874577 0.3125 25.1875 C-0.99654297 25.14882812 -0.99654297 25.14882812 -2.33203125 25.109375 C-5.3306237 25.49629015 -6.57794781 26.54405134 -8.875 28.4375 C-9.535 28.4375 -10.195 28.4375 -10.875 28.4375 C-10.99875 28.994375 -11.1225 29.55125 -11.25 30.125 C-11.875 32.4375 -11.875 32.4375 -12.89491272 34.72370911 C-13.97308557 37.70909186 -14.14732751 40.00352988 -14.18139648 43.1706543 C-14.19738388 44.29920334 -14.21337128 45.42775238 -14.22984314 46.59049988 C-14.23520584 47.80200211 -14.24056854 49.01350433 -14.24609375 50.26171875 C-14.25512222 51.51829788 -14.2641507 52.77487701 -14.27345276 54.0695343 C-14.28795441 56.72838665 -14.29763629 59.38680948 -14.30053711 62.0456543 C-14.30590208 65.42710566 -14.34351423 68.80735166 -14.38928127 72.18846416 C-14.42647126 75.44197533 -14.42757991 78.69552383 -14.43359375 81.94921875 C-14.45312607 83.15059982 -14.47265839 84.3519809 -14.49278259 85.58976746 C-14.45247192 93.17942905 -13.34367618 99.1499471 -8.875 105.4375 C-3.9199734 108.50489742 2.4418013 107.61952416 8.125 107.4375 C9.44315451 104.87505308 10.61387857 102.32315555 11.625 99.625 C11.8621875 98.99980469 12.099375 98.37460938 12.34375 97.73046875 C13.38655715 94.66982976 14.23671321 91.54650375 15.125 88.4375 C23.375 88.4375 31.625 88.4375 40.125 88.4375 C38.73608604 100.29668843 36.70615677 109.8525475 31.125 120.4375 C30.465 120.4375 29.805 120.4375 29.125 120.4375 C29.125 121.4275 29.125 122.4175 29.125 123.4375 C21.46162971 131.30253793 11.17680142 133.54023377 0.5 133.6875 C-8.74904038 133.60928401 -17.4940419 132.37827115 -24.875 126.4375 C-25.7 125.880625 -26.525 125.32375 -27.375 124.75 C-37.05277306 115.79805992 -39.13744817 105.04871109 -39.875 92.4375 C-39.99821449 88.46771126 -40.01572526 84.50274508 -40.0078125 80.53125 C-40.00876923 79.44469116 -40.00972595 78.35813232 -40.01071167 77.23864746 C-40.01138693 74.9597162 -40.00957874 72.68078294 -40.00537109 70.40185547 C-40.00001356 66.94624443 -40.00533856 63.49076333 -40.01171875 60.03515625 C-40.01105785 57.80468722 -40.00977645 55.57421827 -40.0078125 53.34375 C-40.00983673 52.32776733 -40.01186096 51.31178467 -40.01394653 50.26501465 C-39.95149342 30.82034606 -39.95149342 30.82034606 -36.5625 22.5 C-36.15386719 21.45972656 -35.74523437 20.41945313 -35.32421875 19.34765625 C-33.81169351 16.31037511 -32.17423258 13.92948262 -29.875 11.4375 C-29.215 11.4375 -28.555 11.4375 -27.875 11.4375 C-27.565625 10.57125 -27.565625 10.57125 -27.25 9.6875 C-21.81495173 0.79378465 -9.33925279 -0.10192688 0 0 Z " fill="#C17E00" transform="translate(651.875,107.5625)"/>
<path d="M0 0 C0 0.66 0 1.32 0 2 C0.99 2.33 1.98 2.66 3 3 C4.1328125 4.70703125 4.1328125 4.70703125 5.125 6.8125 C5.62386719 7.84310547 5.62386719 7.84310547 6.1328125 8.89453125 C7.96333279 13.33890258 8.12637381 17.2363799 8.12939453 22.04760742 C8.13202301 23.09945976 8.13202301 23.09945976 8.13470459 24.17256165 C8.13909565 26.48355606 8.13619575 28.7944736 8.1328125 31.10546875 C8.1334861 32.71161412 8.1344566 34.3177594 8.13571167 35.92390442 C8.13718473 39.28546115 8.13504582 42.64699128 8.13037109 46.00854492 C8.12466025 50.32645618 8.12796383 54.64430546 8.13394356 58.96221447 C8.137548 62.2760719 8.13641137 65.58991449 8.13381577 68.90377235 C8.13314689 70.49665649 8.13397357 72.08954196 8.13629532 73.68242455 C8.13882142 75.90184503 8.13498252 78.12116334 8.12939453 80.34057617 C8.12859894 81.60536301 8.12780334 82.87014984 8.12698364 84.17326355 C8 87 8 87 7 88 C5.43827255 88.08685603 3.87270656 88.10702219 2.30859375 88.09765625 C1.36435547 88.09443359 0.42011719 88.09121094 -0.55273438 88.08789062 C-1.54595703 88.07951172 -2.53917969 88.07113281 -3.5625 88.0625 C-4.55958984 88.05798828 -5.55667969 88.05347656 -6.58398438 88.04882812 C-9.05604849 88.03700007 -11.52799518 88.02051849 -14 88 C-14.495 84.535 -14.495 84.535 -15 81 C-15.639375 81.763125 -16.27875 82.52625 -16.9375 83.3125 C-21.93496102 88.22620469 -28.20590041 89.17593721 -35 89.375 C-40.42904508 89.24971434 -45.01788905 88.11362283 -50 86 C-50 85.34 -50 84.68 -50 84 C-50.5775 83.95875 -51.155 83.9175 -51.75 83.875 C-55.24346437 82.51643052 -56.21151674 80.21926986 -58 77 C-59.88054064 71.59260912 -60.3524684 66.77963389 -60.3125 61.125 C-60.30903564 60.33359619 -60.30557129 59.54219238 -60.30200195 58.72680664 C-60.19450568 52.95823611 -59.57468883 48.2447365 -57 43 C-55.515 42.505 -55.515 42.505 -54 42 C-53.7525 41.401875 -53.505 40.80375 -53.25 40.1875 C-51.36333161 36.88583031 -48.27653931 35.66792159 -45 34 C-44.01 33.4121875 -44.01 33.4121875 -43 32.8125 C-36.93253312 30.34759158 -29.98726137 30.87736904 -23.5625 30.9375 C-22.64017578 30.94201172 -21.71785156 30.94652344 -20.76757812 30.95117188 C-18.51164952 30.96286062 -16.25586033 30.97924545 -14 31 C-14.201578 29.05943567 -14.43731739 27.12239852 -14.6875 25.1875 C-14.81511719 24.10855469 -14.94273437 23.02960938 -15.07421875 21.91796875 C-15.75272139 18.85076965 -15.75272139 18.85076965 -18.30078125 17.13671875 C-22.30342586 15.45108983 -25.72955415 15.41097299 -30 16 C-32.96912882 17.38980498 -34.69657028 18.69657028 -37 21 C-42.35266405 20.73675423 -45.51156383 19.99229078 -50 17 C-52.30783342 15.92850591 -54.64628429 14.96917706 -57 14 C-56.25334038 7.57872723 -54.01932525 3.11842072 -49 -1 C-34.21787511 -10.25635904 -14.22031856 -10.58256265 0 0 Z M-35.5546875 52.765625 C-37.72898393 56.12696976 -38.08122613 59.04428764 -38 63 C-37.41744763 65.4243434 -37.41744763 65.4243434 -36 67 C-32.83990467 68.05336511 -30.4446864 68.20032888 -27.125 68.25 C-26.09632813 68.27578125 -25.06765625 68.3015625 -24.0078125 68.328125 C-20.5607203 67.95207858 -18.76407171 67.06101514 -16 65 C-13.71937172 61.57905758 -13.78074993 60.31812778 -13.875 56.3125 C-13.90207031 54.82169922 -13.90207031 54.82169922 -13.9296875 53.30078125 C-13.95289063 52.54152344 -13.97609375 51.78226563 -14 51 C-17.08301416 50.88355844 -20.16546123 50.81267568 -23.25 50.75 C-24.12269531 50.71648437 -24.99539063 50.68296875 -25.89453125 50.6484375 C-31.04585021 50.52300695 -31.04585021 50.52300695 -35.5546875 52.765625 Z " fill="#C17E00" transform="translate(766,152)"/>
<path d="M0 0 C1.12664063 -0.00515625 2.25328125 -0.0103125 3.4140625 -0.015625 C6.375 0.25 6.375 0.25 9.375 2.25 C8.82136539 10.27770189 6.71812056 17.58854067 4.375 25.25 C3.36179687 25.20359375 2.34859375 25.1571875 1.3046875 25.109375 C-0.04684532 25.07183242 -1.39841028 25.03543494 -2.75 25 C-3.41515625 24.96648437 -4.0803125 24.93296875 -4.765625 24.8984375 C-9.89414595 24.79787827 -12.6925566 26.02276681 -16.625 29.25 C-16.955 29.91 -17.285 30.57 -17.625 31.25 C-18.285 31.25 -18.945 31.25 -19.625 31.25 C-19.63530746 32.00755081 -19.64561493 32.76510162 -19.65623474 33.54560852 C-19.75418063 40.68208169 -19.85669094 47.81846772 -19.96433926 54.95480061 C-20.01952201 58.62372668 -20.07293454 62.29266079 -20.12231445 65.96166992 C-20.17002662 69.50193892 -20.22237185 73.04211177 -20.27794075 76.58226585 C-20.30826295 78.59136299 -20.33377685 80.60053081 -20.35923767 82.60969543 C-20.37918289 83.83073471 -20.39912811 85.05177399 -20.41967773 86.30981445 C-20.43522202 87.38681107 -20.4507663 88.46380768 -20.46678162 89.57344055 C-20.625 92.25 -20.625 92.25 -21.625 95.25 C-29.545 95.25 -37.465 95.25 -45.625 95.25 C-45.64754957 83.14157724 -45.66591424 71.03316831 -45.67681217 58.92472935 C-45.68204136 53.30292038 -45.68913966 47.68112647 -45.70043945 42.05932617 C-45.71126706 36.63881723 -45.71727656 31.2183228 -45.71987724 25.79780388 C-45.72173172 23.72485055 -45.72535277 21.65189806 -45.73073006 19.57895088 C-45.7379388 16.68616107 -45.73899101 13.79343204 -45.73852539 10.90063477 C-45.74212067 10.03461136 -45.74571594 9.16858795 -45.74942017 8.27632141 C-45.73905216 2.36405216 -45.73905216 2.36405216 -44.625 1.25 C-42.92941274 1.15067847 -41.22974253 1.11919993 -39.53125 1.1171875 C-38.50128906 1.11589844 -37.47132813 1.11460937 -36.41015625 1.11328125 C-34.78400391 1.11908203 -34.78400391 1.11908203 -33.125 1.125 C-32.04089844 1.12113281 -30.95679688 1.11726562 -29.83984375 1.11328125 C-28.80988281 1.11457031 -27.77992188 1.11585938 -26.71875 1.1171875 C-25.29079102 1.11887939 -25.29079102 1.11887939 -23.83398438 1.12060547 C-21.625 1.25 -21.625 1.25 -20.625 2.25 C-20.17040142 4.90463121 -19.92256762 7.57189138 -19.625 10.25 C-18.861875 9.486875 -18.09875 8.72375 -17.3125 7.9375 C-16.425625 7.050625 -15.53875 6.16375 -14.625 5.25 C-14.13 4.693125 -13.635 4.13625 -13.125 3.5625 C-9.26382793 0.18397444 -4.94305667 -0.0227267 0 0 Z " fill="#C27E00" transform="translate(840.625,144.75)"/>
<path d="M0 0 C3.97915159 -0.02886984 7.95827653 -0.04675406 11.9375 -0.0625 C13.07380859 -0.07087891 14.21011719 -0.07925781 15.38085938 -0.08789062 C16.46044922 -0.09111328 17.54003906 -0.09433594 18.65234375 -0.09765625 C20.15269165 -0.10551147 20.15269165 -0.10551147 21.68334961 -0.11352539 C24 0 24 0 25 1 C25.10055113 3.85554581 25.13615544 6.68694023 25.12939453 9.54296875 C25.13114685 10.43883698 25.13289917 11.3347052 25.13470459 12.25772095 C25.13912447 15.23433337 25.13618464 18.21088692 25.1328125 21.1875 C25.1334855 23.24633801 25.13445549 25.30517594 25.13571167 27.36401367 C25.13718883 31.68506627 25.13503351 36.00609823 25.13037109 40.32714844 C25.1246738 45.87936546 25.12795271 51.43153414 25.13394356 56.98374939 C25.13754869 61.23694221 25.13641081 65.49012349 25.13381577 69.74331665 C25.13314636 71.79114793 25.13397538 73.83898023 25.13629532 75.8868103 C25.13882106 78.74357908 25.13498236 81.60026843 25.12939453 84.45703125 C25.13141876 85.31213287 25.13344299 86.1672345 25.13552856 87.04824829 C25.11426239 92.88573761 25.11426239 92.88573761 24 94 C22.30441274 94.09932153 20.60474253 94.13080007 18.90625 94.1328125 C17.87628906 94.13410156 16.84632813 94.13539063 15.78515625 94.13671875 C14.15900391 94.13091797 14.15900391 94.13091797 12.5 94.125 C11.41589844 94.12886719 10.33179688 94.13273437 9.21484375 94.13671875 C8.18488281 94.13542969 7.15492188 94.13414062 6.09375 94.1328125 C5.14177734 94.13168457 4.18980469 94.13055664 3.20898438 94.12939453 C1 94 1 94 0 93 C-0.09523905 90.10856849 -0.12553027 87.24107936 -0.11352539 84.34936523 C-0.11367142 83.44213715 -0.11381744 82.53490906 -0.1139679 81.60018921 C-0.11326841 78.58630015 -0.10547434 75.57247207 -0.09765625 72.55859375 C-0.0957922 70.47494033 -0.09436824 68.39128646 -0.09336853 66.30763245 C-0.08954234 60.81176554 -0.0797112 55.31592487 -0.06866455 49.82006836 C-0.0584526 44.21663773 -0.05387137 38.61320287 -0.04882812 33.00976562 C-0.03808902 22.00649886 -0.02101139 11.00325161 0 0 Z " fill="#010101" transform="translate(444,146)"/>
<path d="M0 0 C7.59 0 15.18 0 23 0 C23.90560955 4.52804773 24.14158295 8.6252883 24.12939453 13.19921875 C24.13114685 14.01121735 24.13289917 14.82321594 24.13470459 15.65982056 C24.1390948 18.33573564 24.13619507 21.01158428 24.1328125 23.6875 C24.13348635 25.55167656 24.13445706 27.41585304 24.13571167 29.2800293 C24.13718481 33.18376503 24.1350464 37.08747787 24.13037109 40.99121094 C24.12467405 45.99138716 24.1279551 50.9915097 24.13394356 55.99168396 C24.13755951 59.84013268 24.13640582 63.68856871 24.13381577 67.53701782 C24.13314936 69.38058478 24.1339649 71.2241529 24.13629532 73.06771851 C24.13883878 75.64543709 24.13495732 78.2230691 24.12939453 80.80078125 C24.13141876 81.56041168 24.13344299 82.32004211 24.13552856 83.10269165 C24.12016069 86.952728 23.76357597 90.18212017 23 94 C15.41 94 7.82 94 0 94 C-1.63266802 90.73466395 -1.13813204 87.13095584 -1.12939453 83.54296875 C-1.13114685 82.66806793 -1.13289917 81.79316711 -1.13470459 80.89175415 C-1.13911759 77.99031612 -1.13618704 75.08893869 -1.1328125 72.1875 C-1.1334857 70.17732735 -1.13445586 68.16715479 -1.13571167 66.15698242 C-1.13718789 61.94025906 -1.13503649 57.72355685 -1.13037109 53.50683594 C-1.12467386 48.09262915 -1.12795326 42.67847193 -1.13394356 37.26426697 C-1.13755119 33.11226017 -1.13640965 28.9602652 -1.13381577 24.80825806 C-1.13314706 22.81149286 -1.13397297 20.8147266 -1.13629532 18.81796265 C-1.13882514 16.03095646 -1.13497655 13.24403137 -1.12939453 10.45703125 C-1.13141876 9.62579742 -1.13344299 8.7945636 -1.13552856 7.93814087 C-1.11426399 2.22852799 -1.11426399 2.22852799 0 0 Z " fill="#000000" transform="translate(572,146)"/>
<path d="M0 0 C5.9090625 -0.0309375 5.9090625 -0.0309375 11.9375 -0.0625 C13.18136475 -0.071604 14.42522949 -0.08070801 15.70678711 -0.09008789 C17.16483765 -0.09383423 17.16483765 -0.09383423 18.65234375 -0.09765625 C20.15269165 -0.10551147 20.15269165 -0.10551147 21.68334961 -0.11352539 C24 0 24 0 25 1 C25.0991657 2.62257544 25.13079777 4.24939831 25.1328125 5.875 C25.13474609 7.35226563 25.13474609 7.35226563 25.13671875 8.859375 C25.13285156 9.89578125 25.12898438 10.9321875 25.125 12 C25.13080078 13.55460937 25.13080078 13.55460937 25.13671875 15.140625 C25.13542969 16.12546875 25.13414062 17.1103125 25.1328125 18.125 C25.13168457 19.03507812 25.13055664 19.94515625 25.12939453 20.8828125 C25 23 25 23 24 24 C22.21928754 24.08726223 20.4351686 24.10699041 18.65234375 24.09765625 C17.68031006 24.09515869 16.70827637 24.09266113 15.70678711 24.09008789 C14.46292236 24.08098389 13.21905762 24.07187988 11.9375 24.0625 C7.998125 24.041875 4.05875 24.02125 0 24 C0 16.08 0 8.16 0 0 Z " fill="#010101" transform="translate(444,109)"/>
<path d="M0 0 C7.59 0 15.18 0 23 0 C23.84932265 4.24661326 24.13424352 7.71100874 24.125 12 C24.12886719 13.794375 24.12886719 13.794375 24.1328125 15.625 C24 19 24 19 23 24 C15.41 24 7.82 24 0 24 C-1.18807993 21.62384014 -1.12914522 20.1488258 -1.1328125 17.5 C-1.13410156 16.613125 -1.13539063 15.72625 -1.13671875 14.8125 C-1.13285156 13.884375 -1.12898437 12.95625 -1.125 12 C-1.12886719 11.071875 -1.13273438 10.14375 -1.13671875 9.1875 C-1.13542969 8.300625 -1.13414062 7.41375 -1.1328125 6.5 C-1.13168457 5.6853125 -1.13055664 4.870625 -1.12939453 4.03125 C-1 2 -1 2 0 0 Z " fill="#000000" transform="translate(572,109)"/>
</svg>
