<svg width="41" height="40" viewBox="0 0 41 40" fill="none" xmlns="http://www.w3.org/2000/svg">
<path d="M38.4168 18.3333V16.5C38.4168 12.0817 34.8351 8.5 30.4168 8.5H23.0618C22.3913 7.04235 21.0553 5.96251 19.497 5.51659C17.9387 5.07066 16.2482 5.29131 14.8643 6.12193C13.4804 6.95255 12.5113 8.31828 12.1643 9.87183C11.8174 11.4254 12.1197 13.0631 13.0002 14.4167C13.0002 14.4167 6.75016 14.1667 4.5835 16.6667" stroke="white" stroke-width="3" stroke-linecap="round" stroke-linejoin="round"/>
<path d="M8.4165 21.6667L2.58317 21.6667L2.58317 18.3333L6.91984 18.3333" stroke="white" stroke-width="3" stroke-linecap="round" stroke-linejoin="round"/>
<path d="M38.4168 21.6667H34.4168" stroke="white" stroke-width="3" stroke-linecap="round" stroke-linejoin="round"/>
<path d="M12.5835 28.3333C14.5338 28.3333 16.1418 26.7545 16.1418 24.8333C16.1418 22.9121 14.5338 21.3333 12.5835 21.3333C10.6332 21.3333 9.02516 22.9121 9.02516 24.8333C9.02516 26.7545 10.6332 28.3333 12.5835 28.3333Z" stroke="white" stroke-width="3" stroke-linecap="round" stroke-linejoin="round"/>
<path d="M30.5002 28.3333C32.4505 28.3333 34.0585 26.7545 34.0585 24.8333C34.0585 22.9121 32.4505 21.3333 30.5002 21.3333C28.5499 21.3333 26.9418 22.9121 26.9418 24.8333C26.9418 26.7545 28.5499 28.3333 30.5002 28.3333Z" stroke="white" stroke-width="3" stroke-linecap="round" stroke-linejoin="round"/>
<path d="M13.4165 35H6.4165" stroke="white" stroke-width="3" stroke-linecap="round" stroke-linejoin="round"/>
</svg>
