<?xml version="1.0" encoding="UTF-8"?>
<svg version="1.1" xmlns="http://www.w3.org/2000/svg" width="789" height="219">
<path d="M0 0 C0.9326619 -0.00511093 1.86532379 -0.01022186 2.82624817 -0.01548767 C5.89416002 -0.02933117 8.96184588 -0.02843077 12.02978516 -0.02612305 C14.17298465 -0.03001297 16.31618337 -0.03434825 18.4593811 -0.03910828 C22.94641623 -0.04655931 27.43337267 -0.04628737 31.92041016 -0.04101562 C37.65561961 -0.03522382 43.39050581 -0.05215065 49.12566185 -0.0753603 C53.55074938 -0.09012969 57.97575965 -0.09096494 62.40086746 -0.08785057 C64.5146613 -0.08836221 66.62845965 -0.09357027 68.74222946 -0.10366249 C71.70466549 -0.11607113 74.66647934 -0.1092085 77.62890625 -0.09765625 C78.92440651 -0.10912186 78.92440651 -0.10912186 80.24607849 -0.12081909 C87.92479753 -0.05500892 95.21101387 1.43592647 101.00634766 6.7746582 C101.66763672 7.3624707 102.32892578 7.9502832 103.01025391 8.5559082 C104.44384766 10.2746582 104.44384766 10.2746582 104.44384766 13.2746582 C105.43384766 13.6046582 106.42384766 13.9346582 107.44384766 14.2746582 C108.98681641 16.50512695 108.98681641 16.50512695 110.63134766 19.4621582 C111.23849609 20.53852539 111.84564453 21.61489258 112.47119141 22.72387695 C112.79071777 23.29928223 113.11024414 23.8746875 113.43945312 24.4675293 C114.82633422 26.9628365 116.23293006 29.44669102 117.64428711 31.92822266 C118.64987176 33.69729377 119.64858232 35.47026697 120.64697266 37.2434082 C122.78801676 40.95452228 122.78801676 40.95452228 125.44384766 44.2746582 C127.44574883 44.78632339 127.44574883 44.78632339 129.63134766 44.7121582 C134.8895226 45.10545259 138.50431476 46.76426833 142.44384766 50.2746582 C146.87671713 55.91749205 148.56617383 60.63143422 148.58911133 67.82226562 C148.59246994 68.48284973 148.59582855 69.14343384 148.59928894 69.82403564 C148.60879178 72.00941854 148.6107421 74.19472468 148.61181641 76.38012695 C148.61503082 77.90367158 148.61839503 79.4272159 148.62190247 80.95075989 C148.62789303 84.14768183 148.62974258 87.34457675 148.62915039 90.54150391 C148.62904909 94.62227318 148.64266871 98.70286722 148.6599226 102.78359509 C148.67108912 105.93303713 148.67306813 109.08243755 148.67254066 112.23189735 C148.67371503 113.7352693 148.67810606 115.23864252 148.68587303 116.74199486 C148.77677519 136.16408816 148.77677519 136.16408816 143.44384766 143.2746582 C142.78384766 143.2746582 142.12384766 143.2746582 141.44384766 143.2746582 C141.11384766 144.2646582 140.78384766 145.2546582 140.44384766 146.2746582 C135.95864399 149.69577018 131.17359397 150.87082068 125.61181641 150.6027832 C120.43742142 149.81963153 115.70054747 147.24144898 111.44384766 144.2746582 C111.44384766 143.6146582 111.44384766 142.9546582 111.44384766 142.2746582 C110.12384766 141.6146582 108.80384766 140.9546582 107.44384766 140.2746582 C107.44384766 139.6146582 107.44384766 138.9546582 107.44384766 138.2746582 C106.63947266 138.0890332 106.63947266 138.0890332 105.81884766 137.8996582 C103.44384766 137.2746582 103.44384766 137.2746582 101.00131226 136.25474548 C96.02795594 134.88457773 91.28601307 134.97148294 86.14941406 134.96826172 C84.4556237 134.95577644 84.4556237 134.95577644 82.72761536 134.94303894 C79.00017841 134.91897188 75.27291653 134.91017123 71.54541016 134.90356445 C68.94998116 134.8945965 66.35455269 134.88547462 63.75912476 134.87620544 C58.32035721 134.85972244 52.88165996 134.85198353 47.44287109 134.84912109 C41.17042497 134.84548637 34.89846829 134.81558767 28.62617171 134.77371651 C22.57558071 134.73475194 16.52525989 134.72352684 10.47452927 134.72239494 C7.90773232 134.71819254 5.34093497 134.70575762 2.77421951 134.6848774 C-0.81859554 134.65797328 -4.41006478 134.66278685 -8.00292969 134.67529297 C-9.05877762 134.66045868 -10.11462555 134.64562439 -11.20246887 134.63034058 C-17.8235766 134.69585261 -22.4952807 135.82291192 -27.55615234 140.2746582 C-27.88615234 140.9346582 -28.21615234 141.5946582 -28.55615234 142.2746582 C-29.54615234 142.2746582 -30.53615234 142.2746582 -31.55615234 142.2746582 C-31.88615234 143.2646582 -32.21615234 144.2546582 -32.55615234 145.2746582 C-38.99009929 149.41994162 -45.94764537 151.78447131 -53.55615234 150.2746582 C-57.12796545 148.96995425 -60.45885783 147.49595023 -63.55615234 145.2746582 C-63.88615234 144.2846582 -64.21615234 143.2946582 -64.55615234 142.2746582 C-65.45333984 141.9034082 -65.45333984 141.9034082 -66.36865234 141.5246582 C-69.65244835 139.64820334 -71.22243095 136.71227814 -72.55615234 133.2746582 C-73.89647656 126.40625198 -73.71802365 119.50406912 -73.72412109 112.52856445 C-73.72734041 111.19009873 -73.73070497 109.85163335 -73.73420715 108.51316833 C-73.74017113 105.71677841 -73.74204981 102.92041927 -73.74145508 100.12402344 C-73.74135345 96.55902061 -73.75501883 92.99421688 -73.77222729 89.42926121 C-73.78339935 86.66756806 -73.78537272 83.90592233 -73.78484535 81.14420891 C-73.78658257 79.19675594 -73.7973862 77.24931777 -73.80839539 75.30189514 C-73.78215059 65.08193072 -73.08311327 56.80161913 -65.55615234 49.2746582 C-61.52117785 46.32700315 -57.95579017 45.18499939 -52.99365234 45.0246582 C-48.97801203 44.74030371 -47.36055383 43.57116533 -44.68115234 40.5871582 C-42.09415847 37.3690378 -40.36406788 33.9774523 -38.55615234 30.2746582 C-24.90386869 5.18240126 -24.90386869 5.18240126 -13.51449585 1.21516418 C-9.01799111 -0.02220059 -4.63772193 -0.01324118 0 0 Z M-11.55615234 19.2746582 C-13.84013688 22.11160742 -15.69649192 25.14792345 -17.55615234 28.2746582 C-18.07435547 29.12157227 -18.59255859 29.96848633 -19.12646484 30.84106445 C-20.62469943 33.30675203 -22.09475623 35.78700077 -23.55615234 38.2746582 C-23.97380859 38.97333008 -24.39146484 39.67200195 -24.82177734 40.3918457 C-26.87900305 43.6139257 -26.87900305 43.6139257 -27.55615234 47.2746582 C-24.055424 48.06870685 -20.82309226 48.40178001 -17.23631287 48.40837097 C-15.65701996 48.41476845 -15.65701996 48.41476845 -14.04582214 48.42129517 C-12.90124039 48.42084198 -11.75665863 48.42038879 -10.57739258 48.41992188 C-9.3638913 48.42328049 -8.15039001 48.4266391 -6.90011597 48.43009949 C-3.57998225 48.43796192 -0.25991107 48.4412764 3.06022763 48.44191527 C5.13523135 48.44262695 7.21022854 48.44476342 9.28523064 48.44741249 C16.52585134 48.45665506 23.76645367 48.46074848 31.00708008 48.45996094 C37.75485242 48.45935948 44.50254499 48.46992733 51.25029713 48.4857046 C57.0474439 48.49877597 62.84456456 48.50414505 68.64172596 48.50350553 C72.10260034 48.50325055 75.5634037 48.50610212 79.02426338 48.51668358 C82.88103491 48.52815476 86.7376966 48.52362023 90.59448242 48.51757812 C91.74108841 48.52319763 92.8876944 48.52881714 94.06904602 48.53460693 C95.11908813 48.53041245 96.16913025 48.52621796 97.25099182 48.52189636 C98.6184094 48.52271351 98.6184094 48.52271351 100.01345158 48.52354717 C102.58912319 48.25978101 104.22668126 47.57753828 106.44384766 46.2746582 C106.08033203 45.75258789 105.71681641 45.23051758 105.34228516 44.69262695 C102.45996272 40.47261128 99.83066142 36.23321285 97.44384766 31.7121582 C93.79299166 24.91565605 90.44676091 18.91680965 83.44384766 15.2746582 C80.62114427 14.70418813 80.62114427 14.70418813 77.59106445 14.59765625 C76.44318451 14.53339447 75.29530457 14.46913269 74.11264038 14.40292358 C67.7706995 14.18120175 61.43372891 14.11009679 55.08837891 14.10668945 C53.65117868 14.10346433 52.21397877 14.10009939 50.77677917 14.09660339 C47.78924803 14.09067041 44.80174559 14.08875772 41.81420898 14.08935547 C38.01192882 14.08945747 34.20983376 14.07573997 30.40759754 14.05858326 C27.44853387 14.04740238 24.48951437 14.04543802 21.53043175 14.04596519 C20.12919151 14.04479676 18.7279497 14.04044006 17.32673073 14.03263283 C2.18630172 13.7592136 2.18630172 13.7592136 -11.55615234 19.2746582 Z M-51.55615234 79.2746582 C-53.47409794 83.1105494 -52.85871748 87.72401186 -52.05615234 91.8371582 C-47.94408933 98.51926059 -41.7757993 102.26212227 -34.42333984 104.61450195 C-27.16186218 106.28642256 -20.74596633 106.22868531 -14.22021484 102.4152832 C-11.96818255 100.87163666 -10.15848795 99.5039947 -8.55615234 97.2746582 C-8.54523047 95.26986347 -8.54523047 95.26986347 -9.55615234 93.2746582 C-13.23016962 90.43810074 -17.44019153 88.40407091 -21.55615234 86.2746582 C-22.24499512 85.91726562 -22.93383789 85.55987305 -23.64355469 85.19165039 C-25.83304134 84.07158513 -28.03465123 82.98067956 -30.24365234 81.8996582 C-30.93136719 81.55386719 -31.61908203 81.20807617 -32.32763672 80.85180664 C-38.42679775 77.95310927 -45.41352713 75.39975844 -51.55615234 79.2746582 Z M94.69384766 87.2746582 C94.05568115 87.60675293 93.41751465 87.93884766 92.76000977 88.28100586 C88.99210062 90.29062324 85.68876086 92.50038127 82.44384766 95.2746582 C83.35044387 98.15928252 84.00480744 99.91398622 86.36962891 101.85668945 C94.1916358 105.88931167 101.62609428 106.7434563 110.21337891 104.57543945 C117.65703045 101.86553866 124.96045728 97.65124959 128.44384766 90.2746582 C128.77384766 89.6146582 129.10384766 88.9546582 129.44384766 88.2746582 C129.98949629 84.18229346 129.7970794 82.73890564 127.25634766 79.3996582 C124.70814502 77.14740683 124.70814502 77.14740683 122.13134766 76.8371582 C112.03403209 78.48090725 103.67136704 82.56224956 94.69384766 87.2746582 Z M1.44384766 110.2746582 C1.11041215 112.73257849 1.11041215 112.73257849 1.44384766 115.2746582 C5.06125561 117.6862635 6.70780618 117.52269503 11.01074219 117.51757812 C11.67281677 117.51947647 12.33489136 117.52137482 13.01702881 117.52333069 C15.20369333 117.5270332 17.3900252 117.51634384 19.57666016 117.50512695 C21.09455323 117.50393497 22.61244705 117.50348203 24.13034058 117.5037384 C27.30959701 117.50217456 30.48874068 117.49389105 33.66796875 117.48046875 C37.75162849 117.4634501 41.83516462 117.45965528 45.91885567 117.46041393 C49.05171904 117.46014263 52.18455518 117.45466825 55.31740952 117.44741249 C56.82376779 117.44422173 58.33012916 117.44225747 59.83649063 117.44151878 C61.93629522 117.43936114 64.03596612 117.43063043 66.13574219 117.41992188 C67.33248566 117.41611008 68.52922913 117.41229828 69.76223755 117.40837097 C72.36283404 117.57934341 72.36283404 117.57934341 73.44384766 116.2746582 C73.48465549 114.27507457 73.48639122 112.27420566 73.44384766 110.2746582 C69.6665373 108.53062527 66.71944129 108.02591968 62.57128906 108.03173828 C61.41303619 108.02866165 60.25478333 108.02558502 59.06143188 108.02241516 C57.19725113 108.03319344 57.19725113 108.03319344 55.29541016 108.04418945 C54.00951996 108.04464767 52.72362976 108.0451059 51.39877319 108.045578 C48.68034433 108.04713892 45.96204789 108.05539597 43.24365234 108.06884766 C39.77494544 108.08580285 36.30638425 108.08966262 32.83764076 108.08890247 C29.51104472 108.08924138 26.18449551 108.09809171 22.85791016 108.10668945 C21.61917145 108.10780228 20.38043274 108.1089151 19.10415649 108.11006165 C9.77007709 107.4534739 9.77007709 107.4534739 1.44384766 110.2746582 Z " fill="#6F77B4" transform="translate(112.55615234375,17.725341796875)"/>
<path d="M0 0 C52.65853659 0 52.65853659 0 63.49609375 10.44140625 C71.63388608 19.30363113 71.1569782 31.15654677 71.16796875 42.43359375 C71.17296135 44.22145042 71.17296135 44.22145042 71.17805481 46.04542542 C71.18310428 48.55933243 71.18546375 51.07324612 71.18530273 53.5871582 C71.1874905 57.42084839 71.20567114 61.25425123 71.22460938 65.08789062 C71.22754349 67.53645735 71.22952817 69.98502544 71.23046875 72.43359375 C71.23765427 73.57340195 71.24483978 74.71321014 71.25224304 75.88755798 C71.22032588 87.0702121 69.09466102 98.66726072 61 107 C43.12403637 121.04539999 22.71027026 115 0 115 C0 77.05 0 39.1 0 0 Z M22 21 C22 45.09 22 69.18 22 94 C38.70569954 95.66410059 38.70569954 95.66410059 46 90 C48.69417597 84.01703785 48.30624292 77.65556258 48.30078125 71.1875 C48.30506638 70.05981201 48.3093515 68.93212402 48.31376648 67.77026367 C48.31949235 65.39339874 48.32002294 63.01651629 48.31567383 60.63964844 C48.31251052 57.01206516 48.33600753 53.38529531 48.36132812 49.7578125 C48.36360101 47.44270936 48.36430466 45.12760403 48.36328125 42.8125 C48.372491 41.73315186 48.38170074 40.65380371 48.39118958 39.54174805 C48.35508133 33.6406622 48.18147732 29.06553922 45 24 C37.58382361 19.73289481 37.58382361 19.73289481 22 21 Z " fill="#000000" transform="translate(298,41)"/>
<path d="M0 0 C2.85268326 1.75310353 5.21800386 3.57737886 7.5859375 5.9453125 C8.2459375 3.9653125 8.9059375 1.9853125 9.5859375 -0.0546875 C12.89841937 -0.08356896 16.21086917 -0.10144549 19.5234375 -0.1171875 C20.46896484 -0.12556641 21.41449219 -0.13394531 22.38867188 -0.14257812 C23.73735352 -0.14741211 23.73735352 -0.14741211 25.11328125 -0.15234375 C26.36226196 -0.16019897 26.36226196 -0.16019897 27.63647461 -0.16821289 C29.5859375 -0.0546875 29.5859375 -0.0546875 30.5859375 0.9453125 C30.70248376 3.74781211 30.7539584 6.52598853 30.76293945 9.32958984 C30.77279625 10.64929779 30.77279625 10.64929779 30.78285217 11.9956665 C30.80265136 14.92419513 30.81426779 17.85267211 30.82421875 20.78125 C30.82829428 21.78159901 30.8323698 22.78194801 30.83656883 23.81261063 C30.85746641 29.11611985 30.87174719 34.41960298 30.88110352 39.72314453 C30.8921232 45.18486487 30.92646091 50.64617273 30.96627522 56.10774803 C30.99252666 60.31845822 31.00080334 64.52907191 31.00438499 68.73985672 C31.0092358 70.75153995 31.02080646 72.7632193 31.03942299 74.77482224 C31.14121786 86.51218252 31.1217073 96.49369069 24.8359375 106.8203125 C15.90607274 115.25407366 6.23533138 116.47894198 -5.6171875 116.20703125 C-10.24683912 115.88790917 -13.28811948 115.00828401 -17.4140625 112.9453125 C-18.6515625 112.3575 -18.6515625 112.3575 -19.9140625 111.7578125 C-20.6565625 111.355625 -20.6565625 111.355625 -21.4140625 110.9453125 C-21.4140625 110.2853125 -21.4140625 109.6253125 -21.4140625 108.9453125 C-22.0740625 108.9453125 -22.7340625 108.9453125 -23.4140625 108.9453125 C-24.42440748 107.20126462 -25.42198672 105.44981689 -26.4140625 103.6953125 C-27.249375 102.23351562 -27.249375 102.23351562 -28.1015625 100.7421875 C-29.4140625 97.9453125 -29.4140625 97.9453125 -29.4140625 93.9453125 C-26.47903655 92.93794622 -23.54066789 91.94070746 -20.6015625 90.9453125 C-19.76818359 90.65914063 -18.93480469 90.37296875 -18.07617188 90.078125 C-17.27373047 89.80742187 -16.47128906 89.53671875 -15.64453125 89.2578125 C-14.90614014 89.00644531 -14.16774902 88.75507813 -13.40698242 88.49609375 C-11.4140625 87.9453125 -11.4140625 87.9453125 -8.4140625 87.9453125 C-7.8365625 88.9146875 -7.2590625 89.8840625 -6.6640625 90.8828125 C-4.66385886 94.26022299 -4.66385886 94.26022299 -0.9140625 94.9453125 C2.40546495 94.9453125 3.94632116 94.8742629 6.5859375 92.9453125 C8.02801691 90.06115367 7.67988637 87.52809722 7.6484375 84.3203125 C7.63941406 83.13179688 7.63039063 81.94328125 7.62109375 80.71875 C7.60949219 79.80351562 7.59789062 78.88828125 7.5859375 77.9453125 C6.7196875 78.7496875 5.8534375 79.5540625 4.9609375 80.3828125 C-0.08018798 84.55234152 -6.07714011 84.42426594 -12.4140625 83.9453125 C-17.444757 82.9221204 -20.85632398 81.69030042 -24.4140625 77.9453125 C-29.17072828 70.63743536 -30.15867341 64.2822349 -30.078125 55.69140625 C-30.08290863 54.55051041 -30.08769226 53.40961456 -30.09262085 52.23414612 C-30.09600444 49.8365032 -30.08691089 47.43881317 -30.06591797 45.04125977 C-30.03910853 41.38908337 -30.0657346 37.73997325 -30.09765625 34.08789062 C-30.09435237 31.74738911 -30.08794658 29.40688949 -30.078125 27.06640625 C-30.08824615 25.98491806 -30.09836731 24.90342987 -30.10879517 23.78916931 C-29.98103151 15.45461137 -27.66404424 10.06195603 -22.5390625 3.5703125 C-16.10098989 -1.3529195 -7.67293048 -3.35225118 0 0 Z M-8.4140625 23.9453125 C-8.9019665 26.81894435 -9.09516303 29.08630421 -9.04296875 31.94921875 C-9.04538071 32.70951889 -9.04779266 33.46981903 -9.05027771 34.25315857 C-9.04930157 35.85429114 -9.03596322 37.45545844 -9.01098633 39.05639648 C-8.9766124 41.50425902 -8.990351 43.94852115 -9.00976562 46.39648438 C-9.00286824 47.95574449 -8.99319681 49.51499533 -8.98046875 51.07421875 C-8.98542862 51.80347061 -8.99038849 52.53272247 -8.99549866 53.28407288 C-8.91521992 56.75290582 -8.67668562 58.61133643 -6.50366211 61.37475586 C-3.00466441 64.00462526 -0.80405228 64.46178189 3.5859375 63.9453125 C7.16851968 61.21735456 8.45161577 59.73305618 9.21704102 55.24414062 C9.24309396 53.82185299 9.24088606 52.39885033 9.21484375 50.9765625 C9.21725571 50.21863403 9.21966766 49.46070557 9.22215271 48.67980957 C9.22117646 47.08287302 9.20783559 45.48590171 9.18286133 43.88916016 C9.14853557 41.45227485 9.1622136 39.01901641 9.18164062 36.58203125 C9.17474174 35.02602632 9.16506895 33.47003069 9.15234375 31.9140625 C9.15978355 30.82792664 9.15978355 30.82792664 9.16737366 29.71984863 C9.08516016 26.16780722 8.64801561 24.04797135 6.79663086 20.98632812 C4.15552251 18.54793323 2.23532374 18.35186093 -1.31640625 18.28125 C-4.69314735 19.35023694 -6.19713295 21.22157272 -8.4140625 23.9453125 Z " fill="#000000" transform="translate(449.4140625,73.0546875)"/>
<path d="M0 0 C0.99 0.66 1.98 1.32 3 2 C3 2.66 3 3.32 3 4 C3.5775 4.20625 4.155 4.4125 4.75 4.625 C10.46820498 8.1194586 13.26901578 15.79318517 15 22 C15.63596173 26.66208865 16.03273621 31.29253321 16 36 C15 37 15 37 13.05053711 37.11352539 C12.2178833 37.10828857 11.38522949 37.10305176 10.52734375 37.09765625 C9.62822266 37.09443359 8.72910156 37.09121094 7.80273438 37.08789062 C6.38444336 37.07532227 6.38444336 37.07532227 4.9375 37.0625 C3.98810547 37.05798828 3.03871094 37.05347656 2.06054688 37.04882812 C-0.29303065 37.0370011 -2.64648477 37.02052025 -5 37 C-5.19335938 36.39671875 -5.38671875 35.7934375 -5.5859375 35.171875 C-5.97652344 33.97304687 -5.97652344 33.97304687 -6.375 32.75 C-6.63023437 31.96109375 -6.88546875 31.1721875 -7.1484375 30.359375 C-7.94112701 27.99751144 -7.94112701 27.99751144 -9.1015625 25.890625 C-10 24 -10 24 -10 21 C-15.88700293 18.49802376 -20.31062927 18.83493556 -26.375 20.75 C-28.67283011 22.51756163 -29.09682901 24.26226574 -30 27 C-30.31240109 29.76283629 -30.31240109 29.76283629 -30.29052734 32.70483398 C-30.30328705 33.82627304 -30.31604675 34.9477121 -30.32919312 36.10313416 C-30.33141876 37.30531082 -30.33364441 38.50748749 -30.3359375 39.74609375 C-30.3425943 40.98996353 -30.3492511 42.23383331 -30.35610962 43.51539612 C-30.36622681 46.14379397 -30.37092693 48.77221746 -30.37060547 51.40063477 C-30.3704426 54.09036049 -30.38437775 56.77940751 -30.41162109 59.46899414 C-30.44825818 63.35323891 -30.4580778 67.23669347 -30.4609375 71.12109375 C-30.47530853 72.32124619 -30.48967957 73.52139862 -30.50448608 74.75791931 C-30.46589956 81.81012788 -30.09116435 85.90883565 -25 91 C-17.92099962 91.76017297 -17.92099962 91.76017297 -11.5 89.375 C-8.27091635 84.26228422 -6.69310841 79.92587944 -5 74 C1.93 74 8.86 74 16 74 C15.72514172 83.98651733 15.03912594 91.17424763 10 100 C9.50242187 100.87785156 9.00484375 101.75570312 8.4921875 102.66015625 C6.69124171 105.48415239 4.76757311 107.13188815 2 109 C1.01 109 0.02 109 -1 109 C-1 109.66 -1 110.32 -1 111 C-9.46822197 116.29263873 -23.19967974 114.60106179 -32.49609375 112.68359375 C-40.17370918 110.5875209 -45.27430328 105.72751989 -49.19140625 98.93359375 C-53.75343213 89.52336325 -54.31369583 79.41112514 -54.3359375 69.11328125 C-54.3425943 68.01259811 -54.3492511 66.91191498 -54.35610962 65.77787781 C-54.3661714 63.46269382 -54.37092866 61.14748122 -54.37060547 58.83227539 C-54.37496709 55.33885515 -54.41132678 51.84671226 -54.44921875 48.35351562 C-54.61129775 16.5919725 -54.61129775 16.5919725 -44.765625 5.69140625 C-32.22637908 -6.32074748 -15.21935718 -5.92344299 0 0 Z " fill="#6E77B3" transform="translate(586,43)"/>
<path d="M0 0 C6.39601483 3.72458695 10.58800884 8.52947291 12.55047607 15.79397583 C13.48490188 21.32910177 13.18455234 27.00081176 13.140625 32.59765625 C13.13688958 34.0001251 13.13404511 35.40259657 13.13204956 36.80506897 C13.12445471 40.47607777 13.10484248 44.14692545 13.0826416 47.81787109 C13.06209322 51.57191794 13.05302871 55.32599111 13.04296875 59.08007812 C13.02159213 66.43107114 12.98644446 73.78189862 12.9453125 81.1328125 C6.6753125 81.1328125 0.4053125 81.1328125 -6.0546875 81.1328125 C-6.7146875 79.4828125 -7.3746875 77.8328125 -8.0546875 76.1328125 C-8.9003125 76.9371875 -9.7459375 77.7415625 -10.6171875 78.5703125 C-15.82845196 82.89065821 -22.54085461 82.59034605 -29.0546875 82.1328125 C-35.31139544 81.39919515 -38.94913061 80.20438278 -43.0546875 75.1328125 C-43.56644531 74.56433594 -44.07820312 73.99585938 -44.60546875 73.41015625 C-48.55902474 67.19742541 -48.52880077 57.15132542 -47.4296875 50.0703125 C-45.55927484 42.04064287 -41.19341965 37.79342602 -34.4296875 33.4453125 C-25.89203661 30.12511493 -16.07531536 31.00374151 -7.0546875 31.1328125 C-7.14254088 29.71504068 -7.25073397 28.29852211 -7.3671875 26.8828125 C-7.42519531 26.09390625 -7.48320313 25.305 -7.54296875 24.4921875 C-8.16869467 21.60716113 -8.92961089 20.18844216 -11.0546875 18.1328125 C-14.7489128 17.35508086 -18.33314214 17.55561566 -22.0546875 18.1328125 C-23.74790689 19.43225994 -25.41864554 20.76207464 -27.0546875 22.1328125 C-33.43454808 22.1328125 -38.40294946 19.94559879 -44.0546875 17.1328125 C-43.93145808 11.21780016 -42.12995433 8.21972009 -38.09765625 3.9296875 C-28.17547989 -4.7972745 -11.6562694 -5.6503272 0 0 Z M-25.0546875 50.1328125 C-27.22135417 52.79947917 -27.22135417 52.79947917 -28.0546875 56.1328125 C-27.37071847 59.09667828 -26.40616034 61.42986682 -25.0546875 64.1328125 C-16.57778656 64.86153714 -16.57778656 64.86153714 -8.7421875 62.2578125 C-6.3651568 57.85590379 -6.62671491 54.03072103 -7.0546875 49.1328125 C-12.80778036 47.21511488 -19.6344642 47.29364791 -25.0546875 50.1328125 Z " fill="#6E77B4" transform="translate(662.0546875,74.8671875)"/>
<path d="M0 0 C2.5625 1.5 2.5625 1.5 4 3 C3.57534294 10.36072234 1.01651083 16.32137824 -2 23 C-2.79664063 22.95359375 -3.59328125 22.9071875 -4.4140625 22.859375 C-9.33568243 22.69172858 -13.05480343 22.59258768 -17.625 24.5625 C-23.06985786 30.15064359 -22.31910115 38.02816072 -22.37890625 45.3671875 C-22.39590073 46.4425174 -22.4128952 47.51784729 -22.43040466 48.62576294 C-22.48331616 52.04211653 -22.52376316 55.45845861 -22.5625 58.875 C-22.60639735 62.31290635 -22.65300024 65.75071813 -22.70530701 69.18850708 C-22.73732836 71.32407493 -22.76419821 73.45972717 -22.78553772 75.59542847 C-22.79902756 76.55377594 -22.8125174 77.51212341 -22.82641602 78.49951172 C-22.83592789 79.34665741 -22.84543976 80.1938031 -22.85523987 81.06661987 C-23 83 -23 83 -24 84 C-25.54955559 84.09899523 -27.10353673 84.13079524 -28.65625 84.1328125 C-30.06583984 84.13474609 -30.06583984 84.13474609 -31.50390625 84.13671875 C-32.98697266 84.13091797 -32.98697266 84.13091797 -34.5 84.125 C-35.48871094 84.12886719 -36.47742188 84.13273437 -37.49609375 84.13671875 C-38.43582031 84.13542969 -39.37554688 84.13414062 -40.34375 84.1328125 C-41.21193359 84.13168457 -42.08011719 84.13055664 -42.97460938 84.12939453 C-45 84 -45 84 -46 83 C-46.10565282 80.51585052 -46.14678274 78.05936167 -46.14526367 75.57446289 C-46.14862228 74.7972438 -46.1519809 74.02002472 -46.15544128 73.21925354 C-46.16497961 70.63703841 -46.16689583 68.05488792 -46.16796875 65.47265625 C-46.17117932 63.68525668 -46.17454324 61.89785738 -46.17805481 60.11045837 C-46.18405329 56.35854482 -46.18589397 52.60665434 -46.18530273 48.85473633 C-46.18520107 44.03795177 -46.19885452 39.22131448 -46.21607494 34.40456486 C-46.22717248 30.71149511 -46.22922264 27.01846123 -46.22869301 23.32537651 C-46.22987648 21.54910207 -46.23431865 19.7728268 -46.24202538 17.99656868 C-46.25178017 15.51591694 -46.24896526 13.03558815 -46.24291992 10.55493164 C-46.24853943 9.81563416 -46.25415894 9.07633667 -46.25994873 8.31463623 C-46.22831564 3.22831564 -46.22831564 3.22831564 -44 1 C-41.95288086 0.75708008 -41.95288086 0.75708008 -39.46484375 0.76953125 C-38.57345703 0.77146484 -37.68207031 0.77339844 -36.76367188 0.77539062 C-35.83103516 0.78763672 -34.89839844 0.79988281 -33.9375 0.8125 C-32.53274414 0.8134668 -32.53274414 0.8134668 -31.09960938 0.81445312 C-24.14019224 0.85980776 -24.14019224 0.85980776 -23 2 C-22.63239269 4.32817964 -22.29758419 6.6618385 -22 9 C-21.01 7.88625 -21.01 7.88625 -20 6.75 C-14.38917987 1.21798353 -7.87726156 -1.34640816 0 0 Z " fill="#6F78B4" transform="translate(738,72)"/>
<path d="M0 0 C6.93 0 13.86 0 21 0 C21 27.39 21 54.78 21 83 C14.07 83 7.14 83 0 83 C0 55.61 0 28.22 0 0 Z " fill="#000000" transform="translate(384,73)"/>
<path d="M0 0 C6.6 0 13.2 0 20 0 C20 27.39 20 54.78 20 83 C13.07 83 6.14 83 -1 83 C-1.02255088 72.32579925 -1.040915 61.6516142 -1.05181217 50.97739506 C-1.05704103 46.02146078 -1.06413874 41.06554358 -1.07543945 36.10961914 C-1.08626822 31.33101164 -1.09227681 26.55242062 -1.09487724 21.7738018 C-1.09673151 19.94646381 -1.10035216 18.11912676 -1.10573006 16.29179573 C-1.11294036 13.74146671 -1.11399095 11.19120663 -1.11352539 8.64086914 C-1.11712067 7.87770386 -1.12071594 7.11453857 -1.12442017 6.32824707 C-1.11405216 1.11405216 -1.11405216 1.11405216 0 0 Z " fill="#010101" transform="translate(497,73)"/>
<path d="M0 0 C6.93 0 13.86 0 21 0 C21 6.93 21 13.86 21 21 C14.07 21 7.14 21 0 21 C0 14.07 0 7.14 0 0 Z " fill="#010101" transform="translate(496,41)"/>
<path d="M0 0 C6.93 0 13.86 0 21 0 C21 6.93 21 13.86 21 21 C14.07 21 7.14 21 0 21 C0 14.07 0 7.14 0 0 Z " fill="#000000" transform="translate(384,41)"/>
<path d="M0 0 C0.33 0 0.66 0 1 0 C1.33 27.06 1.66 54.12 2 82 C1.01 81.67 0.02 81.34 -1 81 C-1.02312359 70.58657075 -1.04091517 60.17314756 -1.05181217 49.75969791 C-1.05704097 44.92483173 -1.06413854 40.08998306 -1.07543945 35.25512695 C-1.08626847 30.5932288 -1.09227686 25.93134754 -1.09487724 21.26943779 C-1.09673147 19.48675712 -1.10035203 17.70407741 -1.10573006 15.92140388 C-1.11294069 13.4333404 -1.11399093 10.94534757 -1.11352539 8.45727539 C-1.11712067 7.71281158 -1.12071594 6.96834778 -1.12442017 6.20132446 C-1.11405216 1.11405216 -1.11405216 1.11405216 0 0 Z " fill="#6E7395" transform="translate(693,74)"/>
<path d="M0 0 C0.33 0 0.66 0 1 0 C1.02526838 6.96003447 1.04283222 13.9200572 1.05493164 20.88012695 C1.05997341 23.24992312 1.06680665 25.61971615 1.07543945 27.98950195 C1.0875119 31.38754039 1.09322971 34.78553785 1.09765625 38.18359375 C1.10281754 39.25024765 1.10797882 40.31690155 1.11329651 41.4158783 C1.11340981 42.88729027 1.11340981 42.88729027 1.11352539 44.38842773 C1.115746 45.25668686 1.11796661 46.12494598 1.12025452 47.01951599 C1 49 1 49 0 50 C-2.53049402 50.07313567 -5.03304837 50.09247527 -7.5625 50.0625 C-8.62887695 50.05573242 -8.62887695 50.05573242 -9.71679688 50.04882812 C-11.47790013 50.03700864 -13.23896036 50.01907263 -15 50 C-15 49.67 -15 49.34 -15 49 C-8.565 48.505 -8.565 48.505 -2 48 C-1.97494385 46.68805664 -1.9498877 45.37611328 -1.92407227 44.02441406 C-1.82989329 39.15647633 -1.72969806 34.28867779 -1.62768555 29.42089844 C-1.58437642 27.31416073 -1.54269847 25.20738883 -1.50268555 23.10058594 C-1.44488573 20.07216081 -1.38121904 17.04390715 -1.31640625 14.015625 C-1.29969376 13.07382385 -1.28298126 12.13202271 -1.26576233 11.16168213 C-1.24581711 10.28107117 -1.22587189 9.40046021 -1.20532227 8.49316406 C-1.18977798 7.72039124 -1.1742337 6.94761841 -1.15821838 6.15142822 C-0.99981486 3.99748251 -0.58781794 2.07436562 0 0 Z " fill="#666EAB" transform="translate(714,106)"/>
<path d="M0 0 C0.5775 0.226875 1.155 0.45375 1.75 0.6875 C1.42 2.0075 1.09 3.3275 0.75 4.6875 C7.02 4.6875 13.29 4.6875 19.75 4.6875 C19.75 5.3475 19.75 6.0075 19.75 6.6875 C13.48 6.6875 7.21 6.6875 0.75 6.6875 C0.09 5.0375 -0.57 3.3875 -1.25 1.6875 C-2.178125 2.533125 -3.10625 3.37875 -4.0625 4.25 C-5.64453125 5.69140625 -5.64453125 5.69140625 -7.25 6.6875 C-8.24 6.3575 -9.23 6.0275 -10.25 5.6875 C-8.91666667 4.6875 -7.58333333 3.6875 -6.25 2.6875 C-5.26 1.82125 -5.26 1.82125 -4.25 0.9375 C-2.25 -0.3125 -2.25 -0.3125 0 0 Z " fill="#676FAB" transform="translate(655.25,149.3125)"/>
<path d="M0 0 C-0.93972656 0.25523438 -0.93972656 0.25523438 -1.8984375 0.515625 C-2.71570313 0.75796875 -3.53296875 1.0003125 -4.375 1.25 C-5.18710938 1.48203125 -5.99921875 1.7140625 -6.8359375 1.953125 C-9.5477139 3.26495907 -9.77621773 4.30574417 -11 7 C-12.43073674 8.56648027 -13.91502443 10.08502371 -15.4375 11.5625 C-16.21996094 12.32691406 -17.00242187 13.09132813 -17.80859375 13.87890625 C-18.53175781 14.57886719 -19.25492187 15.27882813 -20 16 C-21.00219057 16.99780462 -22.00321025 17.99680002 -23 19 C-20.39498977 10.66396726 -14.29954267 4.49801243 -7 0 C-3.86650268 -1.04449911 -3.01031744 -0.93423645 0 0 Z " fill="#656DAC" transform="translate(103,20)"/>
<path d="M0 0 C0.78503906 -0.01224609 1.57007813 -0.02449219 2.37890625 -0.03710938 C4.42063726 -0.04236254 6.46192251 0.0652982 8.5 0.1875 C9.16 0.8475 9.82 1.5075 10.5 2.1875 C7.79283758 3.08988747 6.26223232 3.30601302 3.48828125 3.28515625 C2.35229492 3.28032227 2.35229492 3.28032227 1.19335938 3.27539062 C0.40767578 3.26701172 -0.37800781 3.25863281 -1.1875 3.25 C-1.98478516 3.24548828 -2.78207031 3.24097656 -3.60351562 3.23632812 C-5.56904257 3.2245585 -7.53453085 3.20662348 -9.5 3.1875 C-9.83 2.5275 -10.16 1.8675 -10.5 1.1875 C-7.21646451 -0.45426774 -3.60480362 0.00295961 0 0 Z " fill="#6169AF" transform="translate(645.5,71.8125)"/>
</svg>
