<?xml version="1.0" standalone="no"?>
<!DOCTYPE svg PUBLIC "-//W3C//DTD SVG 20010904//EN"
 "http://www.w3.org/TR/2001/REC-SVG-20010904/DTD/svg10.dtd">
<svg version="1.0" xmlns="http://www.w3.org/2000/svg"
 width="900.000000pt" height="900.000000pt" viewBox="0 0 900.000000 900.000000"
 preserveAspectRatio="xMidYMid meet">

<g transform="translate(0.000000,900.000000) scale(0.100000,-0.100000)"
fill="#000000" stroke="none">
<path d="M4145 8969 c-765 -63 -1500 -319 -2135 -742 -407 -272 -819 -665
-1107 -1057 -472 -643 -751 -1358 -848 -2175 -22 -185 -30 -584 -16 -790 65
-928 396 -1782 969 -2499 687 -859 1670 -1435 2757 -1616 321 -53 709 -72
1035 -51 1004 67 1930 454 2685 1122 425 376 770 829 1029 1349 242 486 392
1009 448 1560 17 164 17 706 0 870 -110 1074 -572 2035 -1338 2780 -719 701
-1638 1129 -2659 1241 -132 14 -681 20 -820 8z m651 -399 c192 -16 451 -56
612 -95 142 -34 385 -108 410 -123 9 -6 -53 -155 -237 -568 -136 -307 -423
-953 -636 -1434 -213 -481 -395 -885 -403 -897 -8 -13 -24 -23 -38 -23 -27 0
-44 30 -139 245 -88 200 -911 2054 -1056 2379 -71 160 -127 292 -125 294 11
10 227 77 362 112 210 54 488 99 699 113 121 8 433 6 551 -3z m-2162 -688 c75
-166 208 -462 629 -1397 611 -1359 770 -1712 777 -1731 5 -12 21 -31 36 -43
26 -21 33 -21 439 -21 l412 0 21 23 c11 12 34 51 51 87 29 64 833 1849 956
2125 98 219 382 850 430 956 24 53 51 114 61 137 9 23 18 42 20 42 3 0 51 -28
107 -61 495 -298 949 -724 1280 -1200 37 -53 67 -103 66 -110 -1 -27 -2094
-4193 -2111 -4204 -30 -17 -53 20 -144 225 -91 206 -268 610 -507 1155 -202
459 -212 480 -238 499 -21 14 -69 16 -427 16 -334 0 -408 -3 -431 -15 -31 -16
-31 -15 -221 -465 -62 -146 -125 -294 -140 -330 -15 -36 -78 -184 -140 -330
-62 -146 -145 -341 -184 -435 -40 -93 -83 -196 -96 -228 -26 -62 -53 -97 -75
-97 -7 0 -23 13 -34 29 -12 16 -133 255 -270 532 -389 789 -725 1467 -1156
2334 -501 1009 -645 1303 -645 1318 1 18 149 226 258 362 115 142 367 403 507
524 171 148 370 293 550 400 50 30 99 60 110 67 11 7 22 13 25 13 3 1 41 -79
84 -177z m-1741 -2319 c97 -197 485 -979 863 -1738 377 -759 836 -1681 1018
-2050 347 -700 355 -715 426 -730 40 -9 90 9 123 43 14 15 57 97 95 182 151
337 490 1096 572 1280 48 107 162 362 253 565 234 525 233 522 256 534 26 15
54 -12 83 -78 12 -25 108 -242 215 -481 107 -239 239 -534 293 -655 54 -121
148 -330 208 -465 60 -135 170 -380 243 -545 74 -165 146 -314 161 -331 36
-41 78 -58 123 -50 66 13 89 45 214 300 66 132 461 927 878 1766 418 839 903
1814 1078 2168 175 353 322 642 326 642 5 0 85 -235 120 -355 27 -95 81 -361
98 -490 54 -397 54 -705 0 -1099 -100 -735 -395 -1412 -874 -2011 -138 -173
-398 -439 -565 -577 -635 -527 -1393 -847 -2205 -930 -164 -16 -622 -16 -775
0 -506 55 -927 174 -1365 386 -784 379 -1436 1009 -1839 1777 -327 623 -482
1288 -463 1988 9 340 41 574 118 881 41 163 127 430 139 430 3 0 86 -161 183
-357z"/>
</g>
</svg>
